<?xml version="1.0" standalone="no"?>
<!DOCTYPE svg PUBLIC "-//W3C//DTD SVG 20010904//EN"
 "http://www.w3.org/TR/2001/REC-SVG-20010904/DTD/svg10.dtd">
<svg version="1.0" xmlns="http://www.w3.org/2000/svg"
 width="769.000000pt" height="769.000000pt" viewBox="0 0 769.000000 769.000000"
 preserveAspectRatio="xMidYMid meet">
<metadata>
Created by potrace 1.11, written by Peter Selinger 2001-2013
</metadata>
<g transform="translate(0.000000,769.000000) scale(0.100000,-0.100000)"
fill="#000000" stroke="none">
<path d="M3265 6635 l-540 -935 -1084 0 c-1031 0 -1083 -1 -1079 -18 3 -9 240
-424 527 -921 287 -497 527 -914 533 -926 9 -21 -48 -124 -520 -942 -292 -505
-534 -926 -537 -935 -7 -17 50 -18 1075 -20 l1083 -3 541 -937 c317 -548 545
-933 550 -928 5 5 250 427 545 937 l537 928 1083 3 c919 2 1082 4 1078 16 -3
8 -241 420 -528 917 -287 497 -527 915 -532 929 -8 22 52 130 531 960 l541
935 -1087 3 -1088 2 -539 935 c-297 514 -542 935 -545 935 -3 0 -248 -421
-545 -935z m895 -119 c187 -323 340 -590 340 -592 0 -2 -310 -4 -690 -4 -379
0 -690 3 -690 7 0 18 686 1191 693 1184 4 -4 160 -272 347 -595z m1272 -1756
c296 -511 539 -934 540 -939 2 -5 -240 -430 -537 -945 l-540 -936 -1085 0
-1085 0 -539 933 c-297 512 -539 937 -539 943 0 6 242 430 538 942 l538 932
1086 0 1086 0 537 -930z m-3125 668 c-13 -24 -167 -290 -342 -593 -174 -302
-320 -553 -323 -557 -4 -4 -163 263 -353 593 l-347 599 695 0 695 0 -25 -42z
m4024 -557 c-190 -330 -349 -597 -353 -593 -3 4 -149 255 -323 557 -175 303
-329 569 -342 593 l-25 42 695 0 695 0 -347 -599z m-4342 -2116 l340 -590
-344 -3 c-189 -1 -501 -1 -693 0 l-350 3 345 598 c190 329 349 594 353 590 5
-4 161 -273 349 -598z m4335 18 c185 -321 339 -589 342 -598 5 -13 -70 -15
-685 -15 -380 0 -691 2 -691 5 0 6 670 1166 683 1183 5 7 11 11 12 10 1 -2
154 -265 339 -585z m-1824 -1067 c0 -14 -682 -1181 -690 -1181 -8 0 -690 1167
-690 1181 0 2 311 4 690 4 380 0 690 -2 690 -4z"/>
<path d="M3620 5454 c0 -3 14 -37 30 -76 17 -38 30 -83 30 -99 0 -16 5 -29 10
-29 6 0 10 17 10 38 0 20 9 67 19 105 16 53 17 67 6 67 -8 0 -16 -16 -20 -38
-11 -65 -20 -68 -44 -13 -12 28 -26 51 -31 51 -6 0 -10 -2 -10 -6z"/>
<path d="M3891 5423 c-43 -168 -44 -172 -22 -158 6 3 11 15 11 26 0 15 7 19
34 19 30 0 35 -4 41 -30 6 -29 25 -42 25 -17 0 6 -10 54 -22 105 -17 73 -26
92 -40 92 -12 0 -20 -12 -27 -37z m44 -55 c7 -36 6 -38 -20 -38 -19 0 -26 4
-22 14 3 8 9 31 13 52 8 42 18 32 29 -28z"/>
<path d="M4105 5363 c-4 -48 -9 -96 -11 -105 -4 -12 0 -18 10 -18 12 0 16 11
16 45 0 45 0 45 35 45 19 0 35 5 35 10 0 6 -14 10 -31 10 -29 0 -30 2 -27 38
3 36 4 37 41 34 22 -2 37 1 37 7 0 6 -12 11 -27 11 -16 0 -38 3 -50 6 -20 6
-21 2 -28 -83z"/>
<path d="M3473 5409 c4 -19 9 -64 13 -101 5 -48 11 -68 20 -68 11 0 13 10 9
38 -3 20 -9 64 -13 96 -4 37 -12 61 -21 64 -11 4 -12 -3 -8 -29z"/>
<path d="M3303 5423 c-7 -3 -13 -21 -13 -41 0 -20 -3 -54 -7 -76 l-6 -38 -41
65 c-30 48 -45 64 -55 58 -12 -7 -11 -25 4 -105 9 -53 21 -96 26 -96 12 0 11
25 -1 90 -6 29 -8 55 -6 57 2 2 18 -21 37 -52 18 -30 38 -54 44 -52 5 2 15 35
20 73 l10 69 23 -79 c14 -49 27 -75 33 -69 5 5 -1 43 -17 98 -28 97 -33 105
-51 98z"/>
<path d="M4353 5402 c-21 -13 -43 -79 -43 -126 0 -52 19 -76 60 -76 37 0 59
39 67 116 5 44 2 58 -12 74 -19 20 -51 26 -72 12z m62 -33 c13 -39 -15 -143
-41 -153 -7 -3 -21 2 -30 11 -18 19 -15 88 7 136 15 33 54 37 64 6z"/>
<path d="M2978 5342 c-48 -16 -68 -39 -25 -28 22 5 25 -1 52 -84 17 -53 33
-86 38 -81 5 5 -2 43 -18 91 -20 66 -23 85 -13 92 7 4 16 8 21 8 4 0 7 5 7 10
0 12 -3 12 -62 -8z"/>
<path d="M4586 5335 c-16 -17 -46 -105 -46 -137 0 -28 38 -60 68 -56 34 4 62
52 69 121 4 42 2 57 -12 70 -21 21 -59 22 -79 2z m70 -30 c4 -15 -2 -50 -12
-83 -16 -48 -23 -57 -45 -60 -20 -2 -28 2 -32 17 -6 26 10 99 29 129 20 30 52
29 60 -3z"/>
<path d="M4796 5197 c-16 -45 -31 -88 -34 -95 -7 -20 64 -45 89 -31 28 15 59
85 59 136 0 37 -4 44 -30 58 -16 8 -35 15 -42 15 -7 0 -26 -36 -42 -83z m75
53 c12 -7 19 -21 19 -40 0 -41 -29 -109 -50 -120 -18 -10 -50 -4 -50 9 0 13
52 161 56 161 3 0 14 -5 25 -10z"/>
<path d="M2746 5261 c-4 -5 0 -52 9 -103 8 -51 15 -96 15 -100 0 -5 5 -8 10
-8 6 0 10 15 10 34 0 29 4 35 27 41 21 5 31 2 43 -13 8 -10 21 -17 27 -15 14
5 -102 166 -122 171 -7 2 -16 -1 -19 -7z m75 -94 c8 -14 5 -19 -13 -26 -26 -9
-35 7 -37 64 l-1 30 21 -25 c11 -14 24 -33 30 -43z"/>
<path d="M4357 4658 c-112 -128 -288 -355 -314 -404 l-27 -52 17 -58 16 -59
-83 -125 c-47 -69 -98 -144 -116 -168 l-31 -43 -18 23 c-10 13 -62 88 -116
167 -94 137 -98 145 -87 175 31 90 22 170 -30 276 -37 77 -154 198 -238 247
-66 38 -136 59 -173 49 -114 -28 -45 -365 107 -519 72 -73 145 -110 221 -113
l60 -2 122 -172 123 -172 -22 -31 c-146 -210 -239 -319 -374 -438 -137 -120
-151 -143 -135 -213 16 -69 24 -76 91 -76 93 0 109 20 190 236 22 58 56 134
76 167 64 107 196 307 203 307 7 0 144 -208 200 -306 22 -39 59 -119 81 -178
78 -207 94 -226 194 -226 53 0 54 0 70 40 9 22 16 58 16 80 0 45 -14 61 -190
221 -89 80 -199 211 -300 356 l-43 62 124 173 124 173 64 5 c59 5 66 8 98 45
59 68 307 479 300 498 -1 5 -74 -90 -160 -212 -87 -121 -161 -221 -167 -221
-28 0 -6 40 133 242 175 254 171 248 160 248 -4 0 -80 -102 -168 -225 -148
-207 -175 -239 -189 -217 -2 4 67 113 155 242 87 128 157 236 154 239 -4 3 -9
1 -13 -5 -4 -6 -78 -110 -166 -232 -110 -152 -163 -219 -173 -215 -8 3 -12 11
-10 17 3 6 65 99 139 206 158 229 172 250 165 250 -3 0 -30 -28 -60 -62z"/>
<path d="M3550 2975 l0 -75 33 1 c30 2 30 2 5 6 -23 4 -28 9 -28 33 0 24 5 29
28 33 l27 4 -27 2 c-24 1 -28 5 -28 30 0 25 5 30 28 34 25 4 25 4 -5 6 l-33 1
0 -75z"/>
<path d="M3632 3038 c-19 -19 -14 -46 13 -64 26 -17 33 -48 13 -60 -6 -4 -17
1 -25 11 -11 16 -13 16 -13 3 0 -18 34 -33 50 -23 19 12 11 54 -15 71 -26 17
-33 48 -13 60 6 4 18 -2 25 -12 14 -19 15 -19 11 1 -4 23 -28 31 -46 13z"/>
<path d="M3708 3043 c12 -2 32 -2 45 0 12 2 2 4 -23 4 -25 0 -35 -2 -22 -4z"/>
<path d="M3847 3044 c-4 -4 -7 -14 -7 -23 0 -11 3 -10 15 5 13 16 16 17 26 4
9 -13 10 -13 6 0 -4 16 -29 25 -40 14z"/>
<path d="M3914 3037 c-3 -8 -4 -41 -2 -73 3 -50 6 -59 22 -59 11 0 21 7 23 15
4 13 3 13 -6 0 -18 -26 -32 3 -29 60 3 53 21 78 32 43 4 -15 5 -15 3 2 -3 23
-35 33 -43 12z"/>
<path d="M3990 3035 c-8 -10 -9 -15 -2 -15 6 0 13 -27 15 -62 3 -62 3 -62 5
15 1 42 0 77 -2 77 -2 0 -9 -7 -16 -15z"/>
<path d="M4042 3002 c-25 -44 -26 -52 -12 -52 6 0 9 3 9 8 -3 18 2 32 17 46 8
9 14 21 12 27 -2 6 -14 -7 -26 -29z"/>
<path d="M3862 2966 c-31 -45 -29 -66 6 -65 23 2 24 2 5 6 -29 5 -29 16 -1 53
12 16 20 32 17 34 -2 3 -14 -10 -27 -28z"/>
<path d="M2651 2864 c-62 -42 -110 -78 -107 -81 3 -3 28 9 57 28 l52 33 19
-27 c28 -39 78 -37 112 3 27 32 25 55 -7 101 -13 17 -20 14 -126 -57z m134 12
c8 -25 6 -31 -18 -52 -35 -30 -48 -30 -77 1 -26 27 -26 27 22 61 41 29 60 27
73 -10z"/>
<path d="M4910 2870 c16 -33 30 -62 30 -65 0 -4 -33 -3 -72 1 -40 3 -70 3 -66
-1 4 -4 41 -11 82 -15 64 -6 81 -12 126 -45 28 -20 54 -34 58 -30 4 3 0 10 -8
15 -65 36 -103 76 -132 135 -18 36 -36 65 -40 65 -5 0 5 -27 22 -60z"/>
<path d="M2732 2744 c-57 -47 -101 -88 -98 -91 3 -3 25 12 51 32 44 37 46 37
65 20 30 -27 25 -49 -21 -90 -22 -20 -38 -39 -35 -42 9 -10 74 51 85 80 7 19
17 27 34 27 31 0 67 39 67 73 0 14 -10 37 -22 52 l-23 25 -103 -86z m138 4 c0
-20 -46 -58 -70 -58 -9 0 -25 9 -36 21 -19 21 -19 21 25 61 l45 39 18 -23 c10
-13 18 -31 18 -40z"/>
<path d="M4745 2740 c-34 -35 -45 -17 93 -139 86 -77 126 -95 47 -23 -46 43
-50 63 -14 82 27 15 35 13 74 -21 20 -18 38 -29 41 -27 9 9 -66 68 -87 68 -13
0 -23 10 -30 28 -10 28 -54 62 -81 62 -8 0 -27 -14 -43 -30z m112 -38 c4 -16
-1 -30 -15 -44 l-20 -21 -41 32 c-23 18 -41 36 -41 41 0 5 12 18 26 29 25 20
27 20 56 3 16 -9 31 -27 35 -40z"/>
<path d="M2826 2624 l-89 -95 29 -30 c15 -16 32 -29 38 -29 5 0 -4 15 -22 33
l-32 33 39 38 c41 40 45 40 91 2 15 -12 12 -6 -7 14 l-33 34 42 43 42 43 36
-33 35 -32 -34 38 c-19 20 -37 37 -40 37 -4 0 -46 -43 -95 -96z"/>
<path d="M4671 2660 c-18 -15 -32 -33 -30 -38 2 -5 43 -50 90 -100 l86 -91 37
31 c20 17 35 33 31 36 -3 3 -19 -7 -35 -23 l-30 -29 -43 43 -42 42 34 29 c19
16 32 32 30 35 -3 2 -18 -9 -34 -25 l-29 -30 -43 42 -43 42 32 33 c39 40 34
42 -11 3z"/>
<path d="M2917 2540 c-43 -56 -77 -105 -75 -110 2 -6 27 21 57 60 29 39 57 72
61 75 5 3 -9 -37 -30 -90 -21 -52 -35 -95 -31 -95 5 0 28 15 52 33 125 94 127
93 46 -10 -27 -35 -44 -63 -39 -63 14 0 172 204 162 208 -5 2 -49 -26 -98 -62
-49 -37 -92 -66 -95 -66 -3 0 6 28 20 63 54 132 62 157 55 157 -4 0 -42 -45
-85 -100z"/>
<path d="M4618 2615 c-3 -4 14 -52 38 -107 24 -56 42 -103 40 -105 -2 -2 -43
28 -90 68 -48 39 -90 68 -94 65 -3 -4 -2 -10 4 -14 5 -4 54 -42 107 -86 54
-43 100 -76 103 -74 2 3 -19 62 -49 132 -29 70 -56 124 -59 121z"/>
<path d="M3085 2429 c-71 -109 -86 -137 -67 -126 16 11 145 217 139 223 -3 3
-36 -41 -72 -97z"/>
<path d="M4492 2498 c8 -13 41 -65 73 -115 32 -51 63 -93 68 -93 5 0 3 10 -5
23 -8 12 -40 64 -72 115 -32 50 -63 92 -68 92 -6 0 -4 -10 4 -22z"/>
<path d="M3173 2498 c-5 -7 -31 -53 -57 -101 -35 -65 -46 -95 -42 -113 8 -32
46 -50 74 -35 22 12 126 195 120 212 -2 6 -30 -37 -61 -95 -56 -102 -67 -113
-101 -100 -26 10 -18 43 35 141 28 52 49 97 46 99 -2 3 -9 -1 -14 -8z"/>
<path d="M4380 2454 c0 -6 116 -221 126 -232 1 -2 23 8 49 23 55 33 53 45 -3
16 l-41 -21 -56 105 c-50 93 -75 130 -75 109z"/>
<path d="M3246 2325 c-27 -69 -46 -129 -42 -132 3 -3 9 3 13 13 4 10 20 51 35
89 l28 70 -6 -97 c-3 -54 -2 -98 3 -98 4 0 32 34 62 75 30 41 56 73 58 72 2
-2 -12 -43 -31 -90 -19 -48 -30 -87 -25 -87 5 0 12 8 16 18 3 9 25 65 48 125
24 59 37 107 31 107 -6 -1 -42 -42 -80 -93 l-68 -92 6 105 c4 58 9 113 12 123
3 9 2 17 -3 17 -4 0 -30 -56 -57 -125z"/>
<path d="M4308 2430 l-37 -20 36 -83 c19 -45 42 -99 51 -119 17 -43 32 -46 82
-17 35 20 30 21 -36 3 -17 -4 -24 3 -42 43 l-21 48 42 19 c23 11 37 21 30 23
-7 2 -21 0 -32 -6 -35 -19 -50 -12 -71 35 -11 26 -20 48 -20 49 0 2 16 9 35
15 19 6 35 16 35 21 0 13 -10 11 -52 -11z"/>
<path d="M4168 2383 c-24 -6 -24 -8 19 -144 31 -103 39 -119 57 -119 37 0 66
28 66 63 0 38 -35 153 -56 185 -14 21 -43 27 -86 15z m62 -13 c18 -10 70 -152
70 -192 0 -19 -18 -35 -44 -40 -16 -2 -25 15 -57 110 l-38 113 22 9 c29 11 26
11 47 0z"/>
<path d="M3521 2237 c-13 -69 -21 -131 -19 -139 3 -7 10 17 17 54 l13 67 47
-5 c33 -3 41 -2 26 5 -11 5 -31 10 -44 10 -23 1 -23 3 -17 53 4 28 9 55 12 59
2 4 21 3 41 -1 21 -5 39 -7 42 -4 8 8 -3 12 -50 19 l-45 7 -23 -125z"/>
<path d="M3676 2325 c-16 -17 -22 -43 -31 -145 -6 -78 9 -110 55 -110 47 0 57
20 65 130 6 89 5 103 -10 120 -22 24 -58 26 -79 5z m73 -23 c13 -24 -2 -187
-19 -207 -16 -19 -44 -19 -60 0 -16 19 -6 190 11 211 16 20 57 17 68 -4z"/>
<path d="M3943 2283 c4 -32 11 -93 18 -135 11 -75 13 -78 38 -78 15 0 37 7 50
16 22 16 23 21 17 95 -4 44 -12 96 -19 116 -11 36 -14 38 -61 41 l-49 3 6 -58z
m79 30 c20 -23 41 -178 28 -203 -11 -21 -60 -33 -65 -16 -9 27 -33 220 -29
228 9 14 50 9 66 -9z"/>
<path d="M3810 2311 c-5 -11 -10 -63 -10 -115 0 -83 3 -99 20 -116 26 -26 55
-25 81 1 20 20 21 28 15 123 -4 55 -12 106 -18 113 -17 21 -76 16 -88 -6z m75
-7 c13 -13 15 -35 13 -116 -3 -93 -5 -101 -25 -109 -43 -16 -57 9 -61 113 -4
79 -1 97 13 111 21 21 39 22 60 1z"/>
</g>
</svg>
